<svg xmlns="http://www.w3.org/2000/svg" viewBox="0 0 800 1000">
  <defs>
    <linearGradient id="tg" x1="0" y1="0" x2="800" y2="1000" gradientUnits="userSpaceOnUse">
      <stop offset="0" stop-color="#ffffff" stop-opacity="0.2"/>
      <stop offset="1" stop-color="#000000" stop-opacity="0.18"/>
    </linearGradient>
  </defs>
  <rect width="800" height="1000" fill="#B5A68E"/>
  <rect width="800" height="1000" fill="url(#tg)"/>
  <g transform="translate(400,460) scale(1.3)">
    
    <g>
      <path d="M -140,-160 L -75,-185 L -40,-150 L 0,-140 L 40,-150 L 75,-185 L 140,-160 L 160,-70 L 105,-45 L 100,180 L -100,180 L -105,-45 L -160,-70 Z"
            fill="#F6F3EE" stroke="#1C1A17" stroke-width="4"/>
      <line x1="0" y1="-140" x2="0" y2="180" stroke="#1C1A17" stroke-width="3"/>
      <circle cx="0" cy="-90" r="5" fill="#1C1A17"/>
      <circle cx="0" cy="-30" r="5" fill="#1C1A17"/>
      <circle cx="0" cy="30" r="5" fill="#1C1A17"/>
      <circle cx="0" cy="90" r="5" fill="#1C1A17"/>
      <rect x="-90" y="20" width="45" height="35" rx="3" fill="none" stroke="#1C1A17" stroke-width="3"/>
      <rect x="45" y="20" width="45" height="35" rx="3" fill="none" stroke="#1C1A17" stroke-width="3"/>
    </g>
  </g>
  <text x="400" y="900" font-family="'Helvetica Neue', Arial, sans-serif" font-size="30" letter-spacing="4" fill="#F6F3EE" text-anchor="middle">MEN</text>
</svg>